<svg xmlns="http://www.w3.org/2000/svg" version="1.1" xmlns:xlink="http://www.w3.org/1999/xlink" width="1000" height="1000"><g clip-path="url(#SvgjsClipPath1098)"><rect width="1000" height="1000" fill="#ffffff"></rect><g transform="matrix(6.349206349206349,0,0,6.349206349206349,103.17460317460319,100)"><svg xmlns="http://www.w3.org/2000/svg" version="1.1" xmlns:xlink="http://www.w3.org/1999/xlink" width="125" height="126"><svg width="125" height="126" viewBox="0 0 125 126" fill="none" xmlns="http://www.w3.org/2000/svg">
<path d="M58.6209 126C51.149 126 45.3317 124.869 41.1688 122.608C37.0593 120.346 34.711 116.819 34.124 112.027C34.0706 111.542 34.0172 110.923 33.9639 110.169C33.9105 109.415 33.9105 108.635 33.9639 107.827C34.1773 104.919 35.2181 102.55 37.086 100.719C38.954 98.9423 41.2489 97.8654 43.9708 97.4884V95.0654C41.4624 94.3654 39.5144 93.3154 38.1267 91.9154C36.7391 90.5154 35.9386 88.7115 35.7251 86.5038C35.6717 85.9654 35.645 85.4269 35.645 84.8885C35.645 84.35 35.6717 83.7846 35.7251 83.1923C35.8852 80.9308 36.7925 79.0461 38.4469 77.5385C40.1548 76.0308 42.2095 75.1154 44.6112 74.7923V72.3692C41.3556 70.7538 38.9273 68.3577 37.3262 65.1808C35.7251 62.0038 34.7911 57.8846 34.5242 52.8231C34.4709 49.7538 34.4175 47.0346 34.3641 44.6654C34.3108 42.2423 34.2841 39.9269 34.2841 37.7192C34.2841 35.4577 34.3108 33.0885 34.3641 30.6115C34.4175 28.1346 34.4709 25.3077 34.5242 22.1308C34.7911 16.9615 35.7251 12.7615 37.3262 9.53077C38.9273 6.24615 41.4357 3.84999 44.8514 2.3423C48.2671 0.780764 52.7501 0 58.3006 0C63.9579 0 68.441 0.780764 71.7499 2.3423C75.0589 3.90384 77.5139 6.38076 79.115 9.77307H81.5967C81.8636 6.86538 82.8509 4.71154 84.5587 3.31154C86.2666 1.91154 88.7216 1.21153 91.9238 1.21153V12.1962H89.3621C87.1739 12.1962 85.4394 13.0308 84.1585 14.7C82.931 16.3692 82.2905 18.9808 82.2371 22.5346L82.077 30.5308C82.1304 32.5231 82.1571 34.4077 82.1571 36.1846C82.1571 37.9077 82.1571 39.6038 82.1571 41.2731C82.1571 42.9423 82.1304 44.7192 82.077 46.6038C82.077 48.4885 82.0237 50.5615 81.9169 52.8231C81.6501 58.1 80.6894 62.3808 79.0349 65.6654C77.4338 68.8961 74.9521 71.2385 71.5898 72.6923C68.2275 74.1461 63.7711 74.8731 58.2206 74.8731C53.951 74.8192 50.9089 75.2769 49.0943 76.2462C47.3331 77.1615 46.4525 78.6961 46.4525 80.85V81.6577C46.5058 82.95 46.8527 84 47.4932 84.8077C48.187 85.5615 49.3878 86.1269 51.0957 86.5038C52.8569 86.8808 55.392 87.1231 58.7009 87.2308C67.08 87.4461 73.3777 88.8192 77.5939 91.35C81.8102 93.8808 84.2385 98.0808 84.879 103.95C84.9323 104.758 84.959 105.565 84.959 106.373C84.959 107.235 84.9323 108.15 84.879 109.119C84.5587 113.265 83.3046 116.55 81.1164 118.973C78.9282 121.45 75.9395 123.227 72.1502 124.304C68.3609 125.435 63.8511 126 58.6209 126ZM58.9411 115.662C61.663 115.662 64.0379 115.419 66.066 114.935C68.0941 114.504 69.6685 113.75 70.7893 112.673C71.9634 111.596 72.6839 110.115 72.9507 108.231C73.0575 107.531 73.0842 106.858 73.0308 106.212C73.0308 105.619 72.9774 105.027 72.8707 104.435C72.6038 102.496 71.8833 101.042 70.7092 100.073C69.5884 99.1038 68.014 98.4308 65.9859 98.0538C64.0112 97.6769 61.663 97.4346 58.9411 97.3269C54.885 97.1654 51.7628 97.5961 49.5746 98.6192C47.3864 99.6423 46.1322 101.608 45.812 104.515C45.7053 105.108 45.6519 105.727 45.6519 106.373C45.6519 107.073 45.6786 107.692 45.732 108.231C45.9455 110.223 46.5859 111.758 47.6533 112.835C48.7207 113.912 50.1884 114.638 52.0563 115.015C53.9777 115.446 56.2726 115.662 58.9411 115.662ZM58.2206 63.9692C61.8498 63.9692 64.3581 63.2423 65.7458 61.7885C67.1868 60.3346 67.9873 57.9115 68.1474 54.5192C68.2542 52.0961 68.3342 49.4577 68.3876 46.6038C68.4943 43.75 68.5477 40.8154 68.5477 37.8C68.5477 34.7846 68.4943 31.7961 68.3876 28.8346C68.3342 25.8731 68.2542 23.0731 68.1474 20.4346C67.9873 16.9346 67.1601 14.4846 65.6657 13.0846C64.2247 11.6308 61.743 10.9038 58.2206 10.9038C54.6982 10.9038 52.1631 11.6308 50.6153 13.0846C49.121 14.5385 48.3204 17.0423 48.2137 20.5961C48.1069 23.6654 48.0269 26.7077 47.9735 29.7231C47.9201 32.6846 47.8935 35.5923 47.8935 38.4461C47.8935 41.3 47.9201 44.0461 47.9735 46.6846C48.0269 49.3231 48.1069 51.8538 48.2137 54.2769C48.3738 57.6154 49.1743 60.0654 50.6153 61.6269C52.0563 63.1885 54.5914 63.9692 58.2206 63.9692Z" fill="black"></path>
</svg></svg></g></g><defs><clipPath id="SvgjsClipPath1098"><rect width="1000" height="1000" x="0" y="0" rx="500" ry="500"></rect></clipPath></defs></svg>