<svg width="46" height="15" viewBox="0 0 46 15" fill="none" xmlns="http://www.w3.org/2000/svg">
<path d="M42.1226 11.8658V4.058H41.3668V3.06001H42.1226V1.98864C42.1177 1.27929 42.2841 0.770508 42.6216 0.462305C42.9641 0.154102 43.5022 0 44.236 0C44.3779 0 44.532 0.0097843 44.6983 0.0293531C44.8696 0.0489213 45.0261 0.0709356 45.168 0.0953961V1.0567C45.0261 1.04202 44.8769 1.03224 44.7203 1.02734C44.5687 1.02245 44.4121 1.02 44.2507 1.02C43.9523 1.02 43.7346 1.08605 43.5976 1.21813C43.4606 1.35022 43.3946 1.57526 43.3995 1.89325V3.06001H44.9038V4.058H43.3995V11.8658H42.1226Z" fill="white"/>
<path d="M38.3328 11.9758C37.8142 11.9758 37.3984 11.9049 37.0853 11.763C36.7722 11.6162 36.5423 11.3838 36.3955 11.0659C36.2536 10.7479 36.1705 10.3296 36.146 9.81103C36.1362 9.47348 36.1264 9.10657 36.1166 8.71031C36.1118 8.30916 36.1093 7.89822 36.1093 7.4775C36.1093 7.05678 36.1118 6.64584 36.1166 6.24469C36.1215 5.83864 36.1313 5.46195 36.146 5.11461C36.1705 4.59604 36.2536 4.17777 36.3955 3.85978C36.5423 3.54179 36.7698 3.31187 37.078 3.16999C37.391 3.02323 37.8093 2.94985 38.3328 2.94985C38.8611 2.94985 39.2794 3.02323 39.5876 3.16999C39.8958 3.31676 40.1208 3.54913 40.2627 3.86712C40.4046 4.18022 40.4878 4.59604 40.5122 5.11461C40.522 5.45216 40.5293 5.82152 40.5342 6.22267C40.544 6.62382 40.5489 7.03476 40.5489 7.45548C40.5489 7.87131 40.544 8.28225 40.5342 8.68829C40.5293 9.08945 40.522 9.46369 40.5122 9.81103C40.4878 10.3247 40.4046 10.7405 40.2627 11.0585C40.1208 11.3765 39.8958 11.6089 39.5876 11.7556C39.2794 11.9024 38.8611 11.9758 38.3328 11.9758ZM38.3328 10.9851C38.6508 10.9851 38.8782 10.9191 39.0152 10.787C39.1522 10.65 39.2231 10.4225 39.228 10.1046C39.2427 9.62513 39.2549 9.17017 39.2647 8.73966C39.2745 8.30916 39.2794 7.88354 39.2794 7.46282C39.2794 7.0421 39.2745 6.61649 39.2647 6.18598C39.2549 5.75058 39.2427 5.29562 39.228 4.82108C39.2231 4.50309 39.1522 4.27806 39.0152 4.14597C38.8831 4.00899 38.6557 3.9405 38.3328 3.9405C38.0148 3.9405 37.7849 4.00899 37.643 4.14597C37.506 4.27806 37.4326 4.50309 37.4228 4.82108C37.4131 5.29562 37.4033 5.75058 37.3935 6.18598C37.3886 6.61649 37.3862 7.0421 37.3862 7.46282C37.3862 7.88354 37.3886 8.3116 37.3935 8.747C37.4033 9.17751 37.4131 9.63003 37.4228 10.1046C37.4326 10.4225 37.5085 10.65 37.6503 10.787C37.7922 10.9191 38.0197 10.9851 38.3328 10.9851Z" fill="white"/>
<path d="M32.6572 11.9758C32.1386 11.9758 31.7228 11.9049 31.4097 11.763C31.0966 11.6162 30.8667 11.3838 30.7199 11.0659C30.578 10.7479 30.4949 10.3296 30.4704 9.81103C30.4606 9.47348 30.4508 9.10657 30.441 8.71031C30.4361 8.30916 30.4337 7.89822 30.4337 7.4775C30.4337 7.05678 30.4361 6.64584 30.441 6.24469C30.4459 5.83864 30.4557 5.46195 30.4704 5.11461C30.4949 4.59604 30.578 4.17777 30.7199 3.85978C30.8667 3.54179 31.0941 3.31187 31.4023 3.16999C31.7154 3.02323 32.1337 2.94985 32.6572 2.94985C33.1855 2.94985 33.6038 3.02323 33.912 3.16999C34.2202 3.31676 34.4452 3.54913 34.5871 3.86712C34.729 4.18022 34.8121 4.59604 34.8366 5.11461C34.8464 5.45216 34.8537 5.82152 34.8586 6.22267C34.8684 6.62382 34.8733 7.03476 34.8733 7.45548C34.8733 7.87131 34.8684 8.28225 34.8586 8.68829C34.8537 9.08945 34.8464 9.46369 34.8366 9.81103C34.8121 10.3247 34.729 10.7405 34.5871 11.0585C34.4452 11.3765 34.2202 11.6089 33.912 11.7556C33.6038 11.9024 33.1855 11.9758 32.6572 11.9758ZM32.6572 10.9851C32.9752 10.9851 33.2026 10.9191 33.3396 10.787C33.4766 10.65 33.5475 10.4225 33.5524 10.1046C33.5671 9.62513 33.5793 9.17017 33.5891 8.73966C33.5989 8.30916 33.6038 7.88354 33.6038 7.46282C33.6038 7.0421 33.5989 6.61649 33.5891 6.18598C33.5793 5.75058 33.5671 5.29562 33.5524 4.82108C33.5475 4.50309 33.4766 4.27806 33.3396 4.14597C33.2075 4.00899 32.98 3.9405 32.6572 3.9405C32.3392 3.9405 32.1092 4.00899 31.9674 4.14597C31.8304 4.27806 31.757 4.50309 31.7472 4.82108C31.7374 5.29562 31.7277 5.75058 31.7179 6.18598C31.713 6.61649 31.7105 7.0421 31.7105 7.46282C31.7105 7.88354 31.713 8.3116 31.7179 8.747C31.7277 9.17751 31.7374 9.63003 31.7472 10.1046C31.757 10.4225 31.8328 10.65 31.9747 10.787C32.1166 10.9191 32.3441 10.9851 32.6572 10.9851Z" fill="white"/>
<path d="M26.7464 11.8659V3.06012H28.0233V3.96272H28.2728C28.3462 3.61049 28.4758 3.36833 28.6617 3.23624C28.8476 3.09926 29.0947 3.03077 29.4029 3.03077C29.4958 3.03077 29.5888 3.03322 29.6817 3.03811C29.7747 3.043 29.8505 3.04789 29.9092 3.05279V4.05811H29.4175C28.9724 4.05811 28.647 4.13639 28.4416 4.29293C28.2361 4.44948 28.0967 4.69164 28.0233 5.01941V11.8659H26.7464Z" fill="white"/>
<path d="M20.9132 14.801V3.05992H22.19V3.88914H22.4102C22.5667 3.57115 22.7428 3.33633 22.9385 3.18467C23.1342 3.02812 23.4179 2.94985 23.7897 2.94985C24.2936 2.94985 24.6728 3.09906 24.9272 3.39748C25.1815 3.691 25.321 4.18266 25.3454 4.87245C25.3552 5.18065 25.3626 5.5549 25.3674 5.99519C25.3772 6.43548 25.3821 6.90023 25.3821 7.38944C25.3821 7.87865 25.3772 8.35563 25.3674 8.82038C25.3626 9.28024 25.3552 9.68873 25.3454 10.0459C25.321 10.7356 25.1693 11.2297 24.8905 11.5282C24.6165 11.8266 24.23 11.9758 23.731 11.9758C23.4277 11.9758 23.1733 11.9049 22.9679 11.763C22.7673 11.6162 22.5814 11.3741 22.4102 11.0365H22.19V14.801H20.9132ZM23.2614 11.0072C23.5158 11.0072 23.7115 10.9387 23.8484 10.8017C23.9854 10.6647 24.0588 10.447 24.0686 10.1486C24.0833 9.67405 24.093 9.20441 24.0979 8.73966C24.1077 8.27491 24.1126 7.8175 24.1126 7.36742C24.1126 6.91246 24.1077 6.46972 24.0979 6.03922C24.0882 5.60382 24.0784 5.1831 24.0686 4.77705C24.0588 4.47374 23.9977 4.25604 23.8851 4.12396C23.7726 3.98698 23.5892 3.91849 23.3348 3.91849C23.0804 3.91849 22.848 3.98698 22.6376 4.12396C22.4322 4.25604 22.283 4.46396 22.19 4.7477V10.1779C22.2928 10.4764 22.4273 10.6892 22.5936 10.8164C22.7599 10.9436 22.9825 11.0072 23.2614 11.0072Z" fill="white"/>
<path d="M17.5146 11.9758C16.7661 11.9758 16.2255 11.8217 15.8928 11.5135C15.5602 11.2053 15.3767 10.6965 15.3425 9.98715C15.3327 9.6447 15.3253 9.26067 15.3205 8.83506C15.3156 8.40455 15.3131 7.95692 15.3131 7.49217C15.3131 7.02742 15.3156 6.57735 15.3205 6.14195C15.3253 5.70166 15.3327 5.30785 15.3425 4.96051C15.3816 4.23647 15.5675 3.72036 15.9002 3.41215C16.2377 3.10395 16.771 2.94985 17.4999 2.94985C18.2141 2.94985 18.7327 3.10151 19.0556 3.40482C19.3785 3.70813 19.557 4.20957 19.5913 4.90914C19.5962 5.05101 19.6011 5.26626 19.6059 5.5549C19.6108 5.84353 19.6108 6.1762 19.6059 6.55289C19.6059 6.92469 19.5962 7.30872 19.5766 7.70498H16.5973C16.5973 8.08656 16.5997 8.47549 16.6046 8.87175C16.6144 9.26312 16.6218 9.67406 16.6266 10.1046C16.6364 10.4372 16.7074 10.6672 16.8395 10.7943C16.9764 10.9215 17.1966 10.9851 17.4999 10.9851C17.7934 10.9851 18.0013 10.9215 18.1236 10.7943C18.2508 10.6672 18.3218 10.4372 18.3364 10.1046C18.3462 9.94312 18.3511 9.74744 18.3511 9.51751C18.3511 9.28269 18.3462 9.0234 18.3364 8.73966H19.5766C19.5913 8.91578 19.5986 9.12125 19.5986 9.35607C19.6035 9.59089 19.6011 9.80125 19.5913 9.98715C19.557 10.6965 19.3834 11.2053 19.0703 11.5135C18.7621 11.8217 18.2435 11.9758 17.5146 11.9758ZM16.5973 6.75836H18.3511C18.3511 6.4844 18.3511 6.21533 18.3511 5.95116C18.356 5.68209 18.356 5.44483 18.3511 5.23936C18.3462 5.03389 18.3413 4.88223 18.3364 4.78439C18.3218 4.48108 18.2508 4.26583 18.1236 4.13863C17.9964 4.00655 17.7885 3.9405 17.4999 3.9405C17.1917 3.9405 16.9715 4.00655 16.8395 4.13863C16.7074 4.26583 16.6364 4.48108 16.6266 4.78439C16.6218 5.14151 16.6169 5.48152 16.612 5.8044C16.6071 6.12727 16.6022 6.44526 16.5973 6.75836Z" fill="white"/>
<path d="M13.9023 11.9758C13.1097 11.9758 12.5545 11.8217 12.2365 11.5135C11.9234 11.2053 11.7669 10.6965 11.7669 9.98715V4.05791H11.1064V3.05992H11.7815V0.564942H13.0657V3.05992H14.4233V4.05791H13.0437V10.1192C13.0437 10.447 13.0951 10.6745 13.1978 10.8017C13.3054 10.9289 13.5451 10.9925 13.9169 10.9925C14.049 10.9925 14.1615 10.99 14.2545 10.9851C14.3474 10.9754 14.4526 10.9656 14.57 10.9558V11.9024C14.4722 11.9269 14.3646 11.944 14.2472 11.9538C14.1346 11.9685 14.0197 11.9758 13.9023 11.9758Z" fill="white"/>
<path d="M7.35103 11.9611C6.83247 11.9611 6.44844 11.8192 6.19894 11.5355C5.95434 11.2469 5.80757 10.7992 5.75865 10.1926C5.75376 10.0752 5.74887 9.9529 5.74398 9.82571C5.74398 9.69851 5.74642 9.57866 5.75131 9.46614C5.77577 9.10901 5.84182 8.79347 5.94944 8.51952C6.05707 8.24067 6.22829 7.98872 6.46312 7.76368C6.70283 7.53376 7.02571 7.3185 7.43175 7.11793C7.6519 7.00052 7.87693 6.89289 8.10686 6.79505C8.33679 6.69231 8.57162 6.59692 8.81133 6.50886V4.82108C8.81133 4.51777 8.75262 4.29518 8.63521 4.15331C8.5178 4.01144 8.305 3.9405 7.99679 3.9405C7.72773 3.9405 7.5296 4.00165 7.4024 4.12396C7.2801 4.24137 7.21161 4.46151 7.19693 4.78439C7.19204 4.88713 7.18715 5.02166 7.18226 5.18799C7.18226 5.35432 7.18226 5.52555 7.18226 5.70166C7.18715 5.87778 7.19204 6.02943 7.19693 6.15663H5.94944C5.94455 6.00008 5.93966 5.80195 5.93477 5.56224C5.92988 5.31763 5.92988 5.09993 5.93477 4.90914C5.95434 4.44928 6.03506 4.07503 6.17693 3.7864C6.3188 3.49777 6.53894 3.2874 6.83736 3.15532C7.14067 3.01834 7.53938 2.94985 8.03348 2.94985C8.55205 2.94985 8.96054 3.02323 9.25896 3.16999C9.55737 3.31676 9.76774 3.54913 9.89004 3.86712C10.0172 4.18022 10.0808 4.58871 10.0808 5.09259L10.0735 11.8657H8.79665V11.0365H8.60586C8.48356 11.3398 8.32701 11.5697 8.13622 11.7263C7.95032 11.8828 7.68859 11.9611 7.35103 11.9611ZM7.82068 11.0072C8.0555 11.0072 8.25363 10.9387 8.41507 10.8017C8.5814 10.6647 8.71104 10.4715 8.80399 10.222V7.46282C8.63277 7.52153 8.4591 7.59246 8.28298 7.67563C8.11176 7.75879 7.92586 7.87131 7.72528 8.01318C7.45132 8.19419 7.26787 8.40455 7.17492 8.64426C7.08197 8.88398 7.02815 9.15794 7.01348 9.46614C7.01348 9.55909 7.01348 9.66182 7.01348 9.77434C7.01348 9.88197 7.01592 9.98959 7.02082 10.0972C7.04528 10.3907 7.126 10.6158 7.26298 10.7723C7.40485 10.9289 7.59075 11.0072 7.82068 11.0072Z" fill="white"/>
<path d="M2.26382 14.3974C1.57893 14.3974 1.04569 14.2947 0.664104 14.0892C0.287411 13.8837 0.0721586 13.5633 0.0183454 13.1279C0.0134533 13.0839 0.00856118 13.0276 0.00366906 12.9591C-0.00122302 12.8906 -0.00122302 12.8197 0.00366906 12.7463C0.0232375 12.4821 0.118634 12.2669 0.289858 12.1005C0.461081 11.9391 0.671442 11.8413 0.92094 11.807V11.5869C0.69101 11.5233 0.512448 11.4279 0.385254 11.3007C0.258059 11.1735 0.184677 11.0096 0.165109 10.809C0.160217 10.7601 0.157771 10.7112 0.157771 10.6623C0.157771 10.6133 0.160217 10.562 0.165109 10.5082C0.179785 10.3027 0.262951 10.1315 0.414606 9.99449C0.571154 9.85751 0.7595 9.77434 0.979645 9.74499V9.52484C0.681226 9.37808 0.458635 9.16038 0.311872 8.87175C0.165109 8.58311 0.0794968 8.20887 0.0550363 7.74901C0.0501442 7.47016 0.045252 7.22311 0.0403599 7.00785C0.0354678 6.78771 0.0330218 6.57735 0.0330218 6.37677C0.0330218 6.1713 0.0354678 5.95605 0.0403599 5.73101C0.045252 5.50598 0.0501442 5.24914 0.0550363 4.96051C0.0794968 4.49086 0.165109 4.10928 0.311872 3.81575C0.458635 3.51733 0.688564 3.29963 1.00166 3.16266C1.31475 3.02079 1.72569 2.94985 2.23447 2.94985C2.75303 2.94985 3.16397 3.02079 3.46728 3.16266C3.77059 3.30453 3.99563 3.52956 4.14239 3.83777H4.36988C4.39434 3.57359 4.48484 3.37791 4.64139 3.25071C4.79794 3.12352 5.02297 3.05992 5.3165 3.05992V4.05791H5.08168C4.8811 4.05791 4.72211 4.13374 4.6047 4.2854C4.49218 4.43705 4.43347 4.67432 4.42858 4.9972L4.41391 5.72368C4.4188 5.90468 4.42124 6.07591 4.42124 6.23735C4.42124 6.3939 4.42124 6.548 4.42124 6.69965C4.42124 6.85131 4.4188 7.01275 4.41391 7.18397C4.41391 7.35519 4.40901 7.54354 4.39923 7.74901C4.37477 8.22843 4.28671 8.61736 4.13506 8.91578C3.98829 9.2093 3.76081 9.42211 3.45261 9.5542C3.1444 9.68628 2.73591 9.75233 2.22713 9.75233C1.83576 9.74743 1.55691 9.78902 1.39058 9.87708C1.22914 9.96024 1.14842 10.0997 1.14842 10.2954V10.3687C1.15331 10.4861 1.18511 10.5815 1.24382 10.6549C1.30742 10.7234 1.41749 10.7748 1.57404 10.809C1.73548 10.8433 1.96785 10.8653 2.27116 10.8751C3.03922 10.8946 3.61649 11.0194 4.00297 11.2493C4.38944 11.4792 4.61204 11.8608 4.67074 12.3941C4.67563 12.4674 4.67808 12.5408 4.67808 12.6142C4.67808 12.6925 4.67563 12.7757 4.67074 12.8637C4.64139 13.2404 4.52642 13.5388 4.32585 13.759C4.12527 13.984 3.85131 14.1454 3.50397 14.2433C3.15663 14.346 2.74325 14.3974 2.26382 14.3974ZM2.29318 13.4581C2.54267 13.4581 2.76037 13.4361 2.94627 13.3921C3.13217 13.3529 3.27649 13.2844 3.37922 13.1866C3.48685 13.0887 3.55289 12.9542 3.57735 12.783C3.58714 12.7194 3.58959 12.6582 3.58469 12.5995C3.58469 12.5457 3.5798 12.4919 3.57002 12.4381C3.54556 12.262 3.47951 12.1299 3.37189 12.0418C3.26915 11.9538 3.12483 11.8926 2.93893 11.8584C2.75793 11.8241 2.54267 11.8021 2.29318 11.7923C1.92138 11.7777 1.63519 11.8168 1.43461 11.9097C1.23403 12.0027 1.11907 12.1813 1.08972 12.4454C1.07993 12.4992 1.07504 12.5555 1.07504 12.6142C1.07504 12.6778 1.07749 12.7341 1.08238 12.783C1.10195 12.964 1.16065 13.1034 1.2585 13.2013C1.35634 13.2991 1.49087 13.3652 1.66209 13.3994C1.83821 13.4385 2.04857 13.4581 2.29318 13.4581ZM2.22713 8.76168C2.5598 8.76168 2.78973 8.69563 2.91692 8.56355C3.04901 8.43146 3.12239 8.21131 3.13706 7.90311C3.14685 7.68296 3.15419 7.44325 3.15908 7.18397C3.16886 6.92469 3.17376 6.65807 3.17376 6.38411C3.17376 6.11015 3.16886 5.83864 3.15908 5.56957C3.15419 5.30051 3.14685 5.04612 3.13706 4.8064C3.12239 4.48842 3.04656 4.26583 2.90958 4.13863C2.77749 4.00655 2.55001 3.9405 2.22713 3.9405C1.90425 3.9405 1.67188 4.00655 1.53001 4.13863C1.39303 4.27072 1.31965 4.4982 1.30986 4.82108C1.30008 5.09993 1.29274 5.37634 1.28785 5.65029C1.28296 5.91936 1.28051 6.18353 1.28051 6.44282C1.28051 6.7021 1.28296 6.95159 1.28785 7.19131C1.29274 7.43102 1.30008 7.66095 1.30986 7.88109C1.32454 8.18441 1.39792 8.407 1.53001 8.54887C1.66209 8.69074 1.89447 8.76168 2.22713 8.76168Z" fill="white"/>
</svg>
